<svg id="Layer_1" data-name="Layer 1" xmlns="http://www.w3.org/2000/svg" viewBox="0 0 300 65"><defs><style>.cls-1{fill:#77777a;}.cls-2{fill:#7d8d9d;}.cls-3{fill:#a8b3bd;}.cls-4{fill:#52677c;opacity:0.5;}.cls-5{fill:#637689;}</style></defs><title>Artboard 1 copy 5</title><path class="cls-1" d="M108.414,49.563,103.963,38.19H89.631l-4.4,11.373H81.021l14.137-35.9h3.5l14.063,35.9Zm-5.747-15.115L98.509,23.369q-.807-2.1-1.663-5.16a46.374,46.374,0,0,1-1.541,5.16L91.1,34.448Z"/><path class="cls-1" d="M128.236,50.053q-5.82,0-9.013-3.583t-3.191-10.138q0-6.727,3.241-10.395t9.232-3.669a18.311,18.311,0,0,1,3.864.416,12.752,12.752,0,0,1,3.033.979l-1.248,3.448a19.108,19.108,0,0,0-2.935-.893,13.12,13.12,0,0,0-2.812-.354q-8.169,0-8.169,10.419,0,4.941,1.993,7.582a6.935,6.935,0,0,0,5.906,2.641,18.062,18.062,0,0,0,6.873-1.442v3.595A14.645,14.645,0,0,1,128.236,50.053Z"/><path class="cls-1" d="M150.58,50.053q-5.82,0-9.013-3.583t-3.191-10.138q0-6.727,3.241-10.395t9.232-3.669a18.311,18.311,0,0,1,3.864.416,12.752,12.752,0,0,1,3.033.979L156.5,27.111a19.108,19.108,0,0,0-2.935-.893,13.12,13.12,0,0,0-2.812-.354q-8.169,0-8.169,10.419,0,4.941,1.993,7.582a6.935,6.935,0,0,0,5.906,2.641,18.062,18.062,0,0,0,6.873-1.442v3.595A14.645,14.645,0,0,1,150.58,50.053Z"/><path class="cls-1" d="M175.038,50.053q-5.944,0-9.38-3.62t-3.437-10.052q0-6.48,3.191-10.3a10.6,10.6,0,0,1,8.573-3.815,10.106,10.106,0,0,1,7.973,3.314,12.7,12.7,0,0,1,2.936,8.743v2.568H166.429q.122,4.72,2.385,7.166a8.245,8.245,0,0,0,6.371,2.445,21.579,21.579,0,0,0,8.56-1.81v3.62a21.54,21.54,0,0,1-4.072,1.333A22.909,22.909,0,0,1,175.038,50.053Zm-1.1-24.385a6.629,6.629,0,0,0-5.148,2.1,9.7,9.7,0,0,0-2.263,5.821h14.015a8.925,8.925,0,0,0-1.713-5.882A6.025,6.025,0,0,0,173.937,25.668Z"/><path class="cls-1" d="M209.106,42.251a6.712,6.712,0,0,1-2.788,5.771q-2.788,2.03-7.826,2.03-5.332,0-8.315-1.687V44.6a20.1,20.1,0,0,0,4.146,1.541,17.313,17.313,0,0,0,4.268.563,9.677,9.677,0,0,0,4.892-1.016,3.494,3.494,0,0,0,.354-5.771,21.325,21.325,0,0,0-5.295-2.629,28.722,28.722,0,0,1-5.319-2.434,7.275,7.275,0,0,1-2.348-2.36,6.157,6.157,0,0,1-.771-3.155,6.015,6.015,0,0,1,2.666-5.173,12.418,12.418,0,0,1,7.313-1.9,21.4,21.4,0,0,1,8.462,1.761l-1.442,3.3a19.432,19.432,0,0,0-7.313-1.663,8.422,8.422,0,0,0-4.354.905,2.8,2.8,0,0,0-1.467,2.5,3.041,3.041,0,0,0,.55,1.834,5.435,5.435,0,0,0,1.773,1.443,39.776,39.776,0,0,0,4.7,1.98q4.768,1.737,6.444,3.5A6.17,6.17,0,0,1,209.106,42.251Z"/><path class="cls-1" d="M233,42.251a6.712,6.712,0,0,1-2.788,5.771q-2.788,2.03-7.826,2.03-5.332,0-8.315-1.687V44.6a20.1,20.1,0,0,0,4.146,1.541,17.313,17.313,0,0,0,4.268.563,9.677,9.677,0,0,0,4.892-1.016,3.494,3.494,0,0,0,.354-5.771,21.325,21.325,0,0,0-5.295-2.629,28.722,28.722,0,0,1-5.319-2.434,7.275,7.275,0,0,1-2.348-2.36A6.157,6.157,0,0,1,214,29.337a6.015,6.015,0,0,1,2.666-5.173,12.418,12.418,0,0,1,7.313-1.9,21.4,21.4,0,0,1,8.462,1.761L231,27.331a19.432,19.432,0,0,0-7.313-1.663,8.422,8.422,0,0,0-4.354.905,2.8,2.8,0,0,0-1.467,2.5,3.041,3.041,0,0,0,.55,1.834,5.435,5.435,0,0,0,1.773,1.443,39.776,39.776,0,0,0,4.7,1.98q4.768,1.737,6.444,3.5A6.17,6.17,0,0,1,233,42.251Z"/><path class="cls-2" d="M.567,38.942a1.939,1.939,0,0,0,0,2.741L21.81,62.926a1.942,1.942,0,0,0,2.743,0l7.2-7.2L7.762,31.747Z"/><path class="cls-2" d="M62.927,24.552a1.937,1.937,0,0,0,0-2.741L41.685.566a1.943,1.943,0,0,0-2.742,0l-7.195,7.2L55.732,31.747Z"/><path class="cls-3" d="M55.732,31.747,31.748,55.731l7.195,7.2a1.941,1.941,0,0,0,2.742,0L62.927,41.683a1.937,1.937,0,0,0,0-2.741Z"/><path class="cls-3" d="M24.553.566a1.944,1.944,0,0,0-2.743,0L.567,21.811a1.939,1.939,0,0,0,0,2.741l7.195,7.2L31.748,7.762Z"/><rect class="cls-4" x="14.788" y="14.787" width="33.919" height="33.919" transform="translate(-13.15 31.746) rotate(-44.998)"/><rect class="cls-5" x="14.788" y="14.787" width="33.919" height="33.919" transform="translate(-13.15 31.746) rotate(-44.998)"/></svg>