<svg id="Layer_1" data-name="Layer 1" xmlns="http://www.w3.org/2000/svg" viewBox="0 0 300 60"><defs><style>.cls-1{fill:#898a8d;}.cls-2{fill:#66cef6;}.cls-3{fill:#80d6f7;}.cls-4{fill:#33bef2;}.cls-5{fill:#00aeef;}</style></defs><title>podium-logo</title><path class="cls-1" d="M112.12,27.77A9.84,9.84,0,0,1,108.47,36Q104.83,38.87,98,38.87H93.89V52.72h-4.1V17.5h9.13Q112.12,17.5,112.12,27.77ZM93.89,35.35h3.68c3.63,0,6.26-.58,7.88-1.76s2.43-3.05,2.43-5.63a6.06,6.06,0,0,0-2.29-5.2Q103.31,21,98.46,21H93.89Z"/><path class="cls-1" d="M138.23,39.5q0,6.45-3.25,10.08t-9,3.62a11.89,11.89,0,0,1-6.29-1.66,11,11,0,0,1-4.24-4.77A16.7,16.7,0,0,1,114,39.5q0-6.47,3.23-10.06t9-3.6a11.17,11.17,0,0,1,8.8,3.68Q138.23,33.21,138.23,39.5Zm-20.12,0q0,5.05,2,7.71a8,8,0,0,0,11.92,0c1.36-1.76,2-4.34,2-7.72s-.67-5.91-2-7.65a7.17,7.17,0,0,0-6-2.62,7,7,0,0,0-5.93,2.58Q118.12,34.39,118.11,39.5Z"/><path class="cls-1" d="M160.74,49.18h-.22c-1.84,2.68-4.61,4-8.28,4a9.8,9.8,0,0,1-8.06-3.54q-2.88-3.54-2.88-10.07t2.89-10.14a9.73,9.73,0,0,1,8.05-3.61,9.59,9.59,0,0,1,8.23,3.9h.32l-.17-1.9-.1-1.86V15.24h4V52.72h-3.25Zm-8,.68c2.73,0,4.71-.75,5.94-2.23s1.84-3.89,1.84-7.19v-.85q0-5.61-1.86-8c-1.25-1.6-3.23-2.39-6-2.39a6.12,6.12,0,0,0-5.39,2.73c-1.24,1.82-1.87,4.4-1.87,7.72s.62,5.92,1.86,7.64A6.28,6.28,0,0,0,152.74,49.86Z"/><path class="cls-1" d="M170.69,19.16a2.67,2.67,0,0,1,.68-2,2.48,2.48,0,0,1,3.35,0,2.61,2.61,0,0,1,.69,2,2.7,2.7,0,0,1-.69,2,2.37,2.37,0,0,1-1.67.66,2.31,2.31,0,0,1-1.68-.66A2.74,2.74,0,0,1,170.69,19.16ZM175,52.72h-4V26.32h4Z"/><path class="cls-1" d="M185.29,26.32V43.45a6.85,6.85,0,0,0,1.47,4.81,6,6,0,0,0,4.6,1.6q4.14,0,6.06-2.27c1.28-1.51,1.92-4,1.92-7.4V26.32h4v26.4H200l-.58-3.54h-.22a8,8,0,0,1-3.41,3,11.46,11.46,0,0,1-5,1c-3.2,0-5.61-.76-7.21-2.29s-2.39-4-2.39-7.32V26.32Z"/><path class="cls-1" d="M243,52.72V35.55a7.13,7.13,0,0,0-1.35-4.74,5.22,5.22,0,0,0-4.19-1.58q-3.74,0-5.51,2.15c-1.2,1.43-1.79,3.63-1.79,6.6V52.72h-4V35.55a7.13,7.13,0,0,0-1.35-4.74,5.23,5.23,0,0,0-4.21-1.58c-2.51,0-4.34.75-5.51,2.26s-1.74,4-1.74,7.38V52.72h-4V26.32h3.25l.65,3.61h.19a7.88,7.88,0,0,1,3.2-3,9.77,9.77,0,0,1,4.61-1.08q6.19,0,8.09,4.48h.2A8.39,8.39,0,0,1,233,27a10.61,10.61,0,0,1,5.1-1.2q4.49,0,6.71,2.3c1.49,1.53,2.23,4,2.23,7.36V52.72Z"/><polygon class="cls-2" points="52.72 43.94 52.72 52.72 70.29 52.72 52.72 43.94"/><polygon class="cls-2" points="0 17.57 0 52.72 17.57 52.72 17.57 26.36 0 17.57"/><polygon class="cls-3" points="52.72 43.94 52.72 17.57 17.57 0 17.57 26.36 35.14 35.15 52.72 43.94"/><polygon class="cls-4" points="35.14 35.15 35.14 52.72 52.72 52.72 52.72 43.94 35.14 35.15"/><polygon class="cls-5" points="17.57 26.36 17.57 52.72 35.14 52.72 35.14 35.15 17.57 26.36"/></svg>